<?xml version="1.0" standalone="no"?>
<!DOCTYPE svg PUBLIC "-//W3C//DTD SVG 1.1//EN" "http://www.w3.org/Graphics/SVG/1.1/DTD/svg11.dtd" >
<svg xmlns="http://www.w3.org/2000/svg">
<metadata></metadata>
<defs>
<font id="honoka_minchoregular" horiz-adv-x="1266" vert-adv-y="2048" >
<font-face units-per-em="2048" ascent="1800" descent="-248" />
<missing-glyph horiz-adv-x="594" />
<glyph horiz-adv-x="0" vert-adv-y="0" />
<glyph horiz-adv-x="682" />
<glyph unicode=" "  horiz-adv-x="594" />
<glyph unicode="&#x09;" horiz-adv-x="594" />
<glyph unicode="&#xa0;" horiz-adv-x="594" />
<glyph unicode="!" horiz-adv-x="578" d="M180 112q0 48 36 82q32 34 78 34t78 -34q36 -34 36 -82q0 -112 -114 -112t-114 112zM218 1308q0 170 78 170q80 0 80 -176q0 -148 -26 -514l-24 -364h-60l-24 364q-24 368 -24 520z" />
<glyph unicode="&#x22;" horiz-adv-x="724" d="M134 1412q0 96 84 96t84 -96q0 -68 -14 -176l-28 -216h-86l-26 216q-14 108 -14 176zM434 1408q0 100 82 100q84 0 84 -96q0 -68 -14 -176l-26 -216h-84l-30 216q-12 92 -12 172z" />
<glyph unicode="#" d="M118 526v88h242l66 356h-294v90h308l80 428l106 -18l-78 -410h274l76 428l108 -18l-76 -410h228v-90h-242l-64 -356h292v-88h-302l-98 -568l-106 18l96 550h-276l-108 -568l-108 18l104 550h-228zM470 614h274l64 356h-270z" />
<glyph unicode="$" d="M152 310q0 116 104 116t104 -94q0 -70 -68 -98q88 -130 298 -136v606q-140 52 -220 104q-174 106 -174 286q0 166 118 266q102 86 276 98v90h82v-90q138 -8 240 -68q144 -82 144 -188q0 -114 -102 -114q-98 0 -98 98q0 62 62 92q-78 102 -246 108v-566l26 -10 q148 -56 226 -108q166 -110 166 -298q0 -202 -166 -310q-106 -66 -252 -72v-110h-82v110q-166 4 -298 86q-140 88 -140 202zM326 1124q0 -162 168 -238q16 -18 66 -32q10 -2 30 -10v542q-90 -8 -152 -50q-112 -74 -112 -212zM672 98q116 10 186 70q92 84 92 220 q0 130 -96 204q-54 40 -182 92v-586z" />
<glyph unicode="%" horiz-adv-x="1606" d="M114 1100q0 204 106 312q72 76 178 76q152 0 230 -138q58 -106 58 -252q0 -180 -86 -288q-76 -98 -202 -98q-148 0 -226 134q-58 106 -58 254zM226 1100q0 -320 174 -320q170 0 170 318q0 324 -170 324q-174 0 -174 -322zM252 34l1046 1472l72 -50l-1046 -1470zM924 368 q0 206 106 312q74 76 178 76q152 0 232 -138q60 -106 60 -254q0 -176 -86 -284q-80 -100 -206 -100q-148 0 -224 136q-60 106 -60 252zM1040 368q0 -320 170 -320q172 0 172 318q0 324 -172 324q-170 0 -170 -322z" />
<glyph unicode="&#x26;" horiz-adv-x="1488" d="M162 392q0 248 314 414q-170 220 -170 360q0 126 90 218q104 104 270 104q160 0 246 -94q72 -78 72 -194q0 -204 -358 -384q220 -262 420 -462q122 166 122 322q0 114 -202 118v56h504v-56q-106 -4 -152 -38q-42 -32 -64 -108q-66 -218 -156 -340q200 -224 362 -228v-60 h-284l-164 168q-174 -192 -414 -192q-202 0 -326 126q-110 110 -110 270zM308 414q0 -140 92 -232t234 -92q194 0 326 150q-214 228 -446 514q-206 -118 -206 -340zM434 1202q0 -84 50 -180q16 -30 54 -86q28 -38 36 -50q6 -8 10 -12l2 -2q16 6 30 16q246 124 246 308 q0 108 -62 172q-58 56 -144 56q-94 0 -158 -64q-64 -62 -64 -158z" />
<glyph unicode="'" horiz-adv-x="434" d="M134 1412q0 96 84 96t84 -96q0 -68 -14 -176l-28 -216h-86l-26 216q-14 108 -14 176z" />
<glyph unicode="(" horiz-adv-x="748" d="M184 560q0 556 372 1014l58 -36q-290 -432 -290 -980q0 -544 290 -980l-58 -34q-372 458 -372 1016z" />
<glyph unicode=")" horiz-adv-x="748" d="M134 -422q290 436 290 980q0 546 -290 980l58 36q372 -456 372 -1014t-372 -1016z" />
<glyph unicode="*" horiz-adv-x="512" d="M10 1298q0 54 46 54q38 0 154 -106l24 -22l-6 32q-20 102 -20 158q0 50 48 50q50 0 50 -48q0 -40 -24 -160l-6 -30l26 22q112 106 152 106q46 0 46 -54q0 -38 -164 -94l-36 -12l38 -14q160 -58 160 -94q0 -56 -42 -56q-28 0 -150 112l-28 22l6 -32q22 -110 22 -160 t-50 -50q-48 0 -48 50q0 44 22 160l6 30l-26 -22q-128 -110 -156 -110q-42 0 -42 56q0 30 162 94l38 14l-32 10q-170 60 -170 94z" />
<glyph unicode="+" d="M118 584v94h466v478h104v-478h464v-94h-464v-502h-104v502h-466z" />
<glyph unicode="," horiz-adv-x="488" d="M96 -146q144 46 154 178q-112 4 -112 98q0 104 106 104q120 0 120 -140q0 -232 -228 -312z" />
<glyph unicode="-" horiz-adv-x="604" d="M82 544v112h442v-112h-442z" />
<glyph unicode="." horiz-adv-x="488" d="M136 118q0 48 32 80q34 34 78 34q48 0 80 -34q32 -32 32 -80q0 -44 -32 -76q-32 -34 -80 -34q-46 0 -78 34q-32 32 -32 76z" />
<glyph unicode="/" horiz-adv-x="1024" d="M110 -274l678 1798l88 -32l-680 -1800z" />
<glyph unicode="0" d="M136 744q0 454 210 656q122 116 282 116q256 0 388 -238q118 -208 118 -536q0 -330 -122 -542q-132 -232 -378 -232t-378 232q-120 214 -120 544zM292 742q0 -290 78 -474q94 -224 266 -224q178 0 270 232q72 180 72 464q0 302 -78 486q-90 218 -264 218 q-146 0 -236 -158q-108 -196 -108 -544z" />
<glyph unicode="1" d="M266 1334v56q326 36 452 134v-1288q0 -94 62 -128q44 -24 210 -24v-64h-698v64q170 0 214 20q70 30 70 132v988q0 110 -108 110h-202z" />
<glyph unicode="2" d="M172 20v82q68 292 416 576l34 28q166 128 222 204q78 106 78 224q0 164 -106 246q-78 60 -188 60q-174 0 -252 -112q-42 -60 -46 -126q98 -2 98 -96q0 -100 -98 -100q-120 0 -120 138t114 252q118 120 312 120q180 0 302 -94q144 -110 144 -298q0 -128 -76 -234 q-70 -102 -276 -234l-58 -38q-332 -212 -390 -472h542q126 0 166 56q36 50 72 238h58l-48 -420h-900z" />
<glyph unicode="3" d="M156 288q0 146 124 146q104 0 104 -102q0 -94 -88 -94q-14 0 -24 2q8 -56 54 -104q92 -86 248 -86q158 0 260 104q98 98 98 246q0 138 -92 230q-100 102 -274 102h-102v82h102q144 0 236 92q98 98 98 248q0 120 -80 198q-84 84 -216 84t-226 -76q-54 -42 -72 -98 q96 0 96 -92q0 -102 -102 -102q-112 0 -112 130q0 126 138 226q128 90 294 90q212 0 332 -120q98 -98 98 -242q0 -294 -334 -362v-14q372 -74 372 -380q0 -168 -116 -286q-140 -144 -382 -144q-186 0 -316 104q-118 92 -118 218z" />
<glyph unicode="4" d="M86 420v98l758 970h76v-980h266v-88h-266v-182q0 -98 40 -126q36 -24 164 -34v-58h-556v58q118 6 158 24q64 28 64 136v182h-704zM190 508h600v770z" />
<glyph unicode="5" d="M190 306q0 132 126 132q104 0 104 -102q0 -40 -30 -68q-28 -28 -62 -28q-12 0 -22 2q12 -74 96 -130q88 -62 212 -62q146 0 238 92q110 112 110 318q0 164 -76 272q-96 132 -256 132q-218 0 -324 -222l-80 10l76 812h752l-28 -126h-638l-54 -520q126 126 324 126 q234 0 366 -170q96 -128 96 -292q0 -290 -202 -430q-124 -86 -288 -86q-134 0 -252 62q-188 102 -188 278z" />
<glyph unicode="6" d="M178 676q0 472 206 696q130 144 326 144q138 0 234 -60q128 -80 128 -184q0 -114 -108 -114q-104 0 -104 96q0 68 68 98q-64 88 -206 88q-176 0 -284 -182q-116 -198 -122 -544h6q122 228 366 228q224 0 356 -168q96 -128 96 -322q0 -220 -138 -358q-130 -128 -322 -128 q-210 0 -344 152q-158 182 -158 558zM346 458q0 -180 94 -298q94 -116 234 -116q168 0 254 152q62 104 62 256q0 210 -110 324q-82 86 -200 86q-128 0 -220 -92q-114 -112 -114 -312z" />
<glyph unicode="7" d="M196 1040l42 424h924v-96q-408 -574 -460 -1280q-10 -102 -96 -102q-76 0 -76 96q0 202 220 696q148 324 302 562h-572q-110 0 -144 -52q-40 -58 -72 -248h-68z" />
<glyph unicode="8" d="M142 360q0 264 344 420q-294 142 -294 368q0 142 110 252q126 126 332 126q188 0 308 -96q126 -100 126 -260q0 -236 -318 -376q368 -162 368 -424q0 -194 -158 -308q-136 -102 -336 -102q-208 0 -346 112q-136 110 -136 288zM274 358q0 -130 88 -218q100 -100 260 -100 q172 0 272 100q82 82 82 210q0 142 -122 244q-52 44 -142 88q-122 60 -132 58l-30 -12q-276 -124 -276 -370zM330 1170q0 -116 92 -200q48 -44 120 -80q106 -54 116 -50q282 110 282 340q0 138 -108 216q-84 58 -192 58q-138 0 -230 -90q-80 -80 -80 -194z" />
<glyph unicode="9" d="M138 1036q0 220 134 352q130 128 326 128q500 0 500 -702q0 -442 -182 -670q-142 -178 -354 -178q-172 0 -292 106q-76 66 -76 142q0 118 108 118q110 0 110 -100q0 -72 -62 -96q60 -86 200 -86q180 0 288 174q120 196 126 566h-6q-116 -222 -374 -222q-200 0 -320 124 q-126 134 -126 344zM290 1044q0 -168 72 -278q82 -122 234 -122q134 0 224 90q108 110 108 304q0 176 -90 290q-92 118 -236 118q-146 0 -234 -124q-78 -112 -78 -278z" />
<glyph unicode=":" horiz-adv-x="590" d="M188 118q0 48 34 80q32 34 76 34q48 0 80 -34q34 -32 34 -80q0 -44 -34 -76q-32 -34 -80 -34q-44 0 -76 34q-34 32 -34 76zM188 908q0 112 110 112q48 0 80 -32q34 -34 34 -80q0 -44 -34 -78q-32 -32 -80 -32q-110 0 -110 110z" />
<glyph unicode=";" horiz-adv-x="590" d="M150 -146q142 42 152 178q-112 8 -112 102q0 100 104 100q122 0 122 -140q0 -80 -38 -156q-64 -122 -192 -156zM190 908q0 112 110 112q46 0 80 -32q32 -32 32 -80q0 -46 -32 -78q-34 -32 -80 -32q-110 0 -110 110z" />
<glyph unicode="&#x3c;" d="M98 592v72l1022 444l34 -92l-926 -386l926 -394l-34 -90z" />
<glyph unicode="=" d="M118 392v96h1034v-96h-1034zM118 756v94h1034v-94h-1034z" />
<glyph unicode="&#x3e;" d="M116 236l926 394l-926 386l34 92l1020 -444v-72l-1020 -446z" />
<glyph unicode="?" horiz-adv-x="1032" d="M98 1116q0 132 106 238q120 122 306 122q200 0 320 -118q98 -96 98 -254q0 -200 -216 -344l-62 -42q-150 -100 -150 -280v-48h-82v52q0 188 138 316l36 36q106 100 136 148q42 66 42 158q0 136 -80 218q-76 82 -198 82q-132 0 -222 -98q-52 -60 -60 -138q102 -10 102 -98 q0 -98 -100 -98q-114 0 -114 148zM354 112q0 46 36 80q34 36 80 36q44 0 76 -34q36 -34 36 -82q0 -112 -112 -112q-116 0 -116 112z" />
<glyph unicode="@" horiz-adv-x="1842" d="M154 704q0 324 230 554q238 238 590 238q330 0 530 -198q180 -174 180 -450q0 -222 -128 -386q-152 -184 -376 -184q-152 0 -152 132q0 26 4 40q-130 -162 -280 -162q-224 0 -224 268q0 272 176 486q144 176 322 176q96 0 166 -74l16 48h124q-30 -92 -88 -312 q-98 -390 -98 -456t70 -66q168 0 284 166q104 148 104 334q0 256 -186 418q-176 152 -446 152q-302 0 -494 -218q-178 -200 -178 -498q0 -300 176 -476q170 -170 458 -170q304 0 516 158l40 -60q-244 -174 -562 -174q-364 0 -576 208q-198 198 -198 506zM682 512 q0 -156 92 -156q164 0 278 300q88 230 88 360q0 144 -108 144q-150 0 -260 -242q-90 -198 -90 -406z" />
<glyph unicode="A" horiz-adv-x="1484" d="M-6 20v58h12q150 0 214 162l498 1248h54l508 -1260q58 -144 220 -150v-58h-536v58q180 0 180 72q0 50 -22 98l-114 278h-578l-110 -288q-22 -62 -22 -90q0 -70 178 -70v-58h-482zM460 604h522l-262 658z" />
<glyph unicode="B" horiz-adv-x="1452" d="M104 20v58q100 6 146 24q62 28 62 136v1006q0 98 -38 124q-38 30 -170 40v56h636q200 0 334 -64q180 -90 180 -282q0 -270 -352 -336v-6q434 -74 434 -360q0 -396 -606 -396h-626zM452 250q0 -164 180 -164h66q480 0 480 322q0 330 -512 330h-214v-488zM452 812h218 q430 0 430 298q0 290 -398 290h-70q-56 0 -86 -10q-94 -18 -94 -146v-432z" />
<glyph unicode="C" horiz-adv-x="1496" d="M124 736q0 360 220 584q194 196 480 196q224 0 394 -120q42 -30 58 -30q32 0 36 84h62v-412h-60q-30 148 -120 250q-138 154 -360 154q-298 0 -442 -258q-102 -186 -102 -432q0 -294 152 -482q158 -194 406 -194q380 0 506 424l76 -24q-66 -246 -226 -376 q-160 -132 -382 -132q-292 0 -482 192q-216 214 -216 576z" />
<glyph unicode="D" horiz-adv-x="1612" d="M104 20v58q100 6 146 24q62 28 62 136v1006q0 98 -38 124q-38 30 -170 40v56h624q318 0 504 -136q264 -194 264 -582q0 -488 -388 -660q-150 -66 -390 -66h-614zM456 240q0 -100 58 -128q42 -20 124 -20h74q258 0 382 88q236 162 236 576q0 644 -618 644h-74 q-54 0 -98 -12q-84 -20 -84 -144v-1004z" />
<glyph unicode="E" horiz-adv-x="1432" d="M104 20v58q112 10 150 26q58 26 58 134v1008q0 96 -38 122q-38 30 -170 40v56h1148l26 -406h-62q-12 176 -78 254q-74 88 -326 88h-180q-86 0 -134 -24q-46 -24 -46 -130v-442h216q124 0 166 54q40 54 50 156h60v-500h-60q-10 102 -42 150q-42 68 -174 68h-216v-490 q0 -96 40 -126q46 -28 140 -28h180q242 0 324 72q96 82 110 304h62l-30 -444h-1174z" />
<glyph unicode="F" horiz-adv-x="1312" d="M104 20v58q108 6 146 24q62 28 62 136v1006q0 98 -38 124q-38 30 -170 40v56h1150l26 -404h-62q-10 146 -60 230q-68 110 -350 110h-176q-88 0 -134 -24q-46 -28 -46 -130v-446h218q128 0 166 56q40 60 50 156h60v-498h-60q-10 100 -40 148q-44 68 -176 68h-218v-492 q0 -100 60 -132q44 -22 164 -28v-58h-572z" />
<glyph unicode="G" horiz-adv-x="1602" d="M124 734q0 364 222 586q196 196 478 196q224 0 394 -120q42 -30 58 -30q32 0 36 84h62v-404h-60q-28 140 -120 240q-136 156 -360 156q-298 0 -442 -258q-102 -186 -102 -438q0 -304 156 -496q156 -194 398 -194q228 0 344 140q52 62 52 154v122q0 104 -52 130 q-36 20 -158 30v56h538v-56q-100 -10 -134 -26q-60 -24 -60 -134v-446h-44l-64 120q-168 -176 -436 -176q-304 0 -498 196q-208 212 -208 568z" />
<glyph unicode="H" horiz-adv-x="1678" d="M104 20v58q104 6 146 24q62 28 62 136v1006q0 104 -52 132q-40 22 -156 32v56h558v-56q-100 -8 -148 -28q-60 -24 -60 -136v-434h770v432q0 102 -62 132q-44 24 -154 34v56h572v-56q-120 -10 -164 -34q-50 -26 -50 -132v-1004q0 -102 56 -132q42 -22 158 -28v-58h-562v58 q110 6 146 24q60 28 60 136v490h-770v-490q0 -104 50 -132q42 -22 158 -28v-58h-558z" />
<glyph unicode="I" horiz-adv-x="776" d="M108 20v58q108 6 152 24q56 24 56 136v1006q0 106 -50 132q-48 22 -158 32v56h564v-56q-102 -8 -146 -28q-64 -28 -64 -136v-1006q0 -104 54 -132q46 -22 156 -28v-58h-564z" />
<glyph unicode="J" horiz-adv-x="968" d="M18 194q0 126 112 126q106 0 106 -100q0 -88 -82 -102q34 -92 172 -92t186 128q26 64 26 248v842q0 104 -54 132q-46 26 -166 32v56h566v-56q-96 -8 -142 -28q-60 -24 -60 -136v-880q0 -412 -346 -412q-124 0 -214 66q-104 78 -104 176z" />
<glyph unicode="K" horiz-adv-x="1478" d="M102 1408v56h576v-56q-108 -8 -154 -28q-64 -26 -64 -138v-512l574 550q40 42 40 68q0 56 -154 60v56h502v-56q-152 -14 -278 -132l-446 -422l536 -646q104 -120 258 -130v-58h-558v58q164 0 164 54q0 24 -72 114l-426 522l-140 -130v-400q0 -102 58 -132q42 -22 160 -28 v-58h-566v58q106 6 150 24q60 26 60 136v1002q0 104 -60 134q-44 24 -160 34z" />
<glyph unicode="L" horiz-adv-x="1244" d="M102 1408v56h572v-56q-116 -10 -160 -34q-52 -26 -52 -132v-1002q0 -90 34 -118q40 -34 138 -34h126q254 0 336 96q70 90 92 274h56l-28 -438h-1106v58q102 6 148 24q62 28 62 136v1004q0 102 -58 132q-44 24 -160 34z" />
<glyph unicode="M" horiz-adv-x="1954" d="M80 1408v56h428l472 -1222l466 1222h412v-56q-98 -6 -148 -30q-60 -28 -60 -136v-1000q0 -108 52 -136q42 -22 156 -28v-58h-554v58q108 6 148 24q58 26 58 140v1122h-6l-516 -1344h-72l-514 1342h-8v-1122q0 -106 52 -134q46 -22 148 -28v-58h-506v58q100 6 146 24 q60 28 60 138v1000q0 110 -54 138q-36 20 -160 30z" />
<glyph unicode="N" horiz-adv-x="1672" d="M80 1408v56h370l856 -1204h6v988q0 102 -54 130q-46 24 -156 30v56h508v-56q-100 -8 -140 -26q-58 -28 -58 -134v-1248h-88l-924 1298h-6v-1058q0 -106 52 -134q46 -22 148 -28v-58h-506v58q100 6 146 24q60 28 60 138v1000q0 110 -54 138q-36 20 -160 30z" />
<glyph unicode="O" horiz-adv-x="1640" d="M124 746q0 350 220 574q196 196 482 196q284 0 480 -196q220 -224 220 -570q0 -368 -222 -590q-194 -194 -478 -194t-480 196q-222 222 -222 584zM294 750q0 -268 104 -450q144 -254 428 -254q246 0 394 204q136 186 136 492q0 328 -154 520q-144 182 -376 182 q-250 0 -398 -206q-134 -186 -134 -488z" />
<glyph unicode="P" horiz-adv-x="1316" d="M104 20v58q108 6 146 24q62 28 62 136v1004q0 100 -38 126q-38 30 -170 40v56h640q318 0 452 -148q88 -98 88 -238q0 -418 -572 -418h-258v-422q0 -102 56 -132q42 -22 162 -28v-58h-568zM454 738h198q472 0 472 328q0 330 -424 330h-64q-54 0 -98 -10q-84 -22 -84 -144 v-504z" />
<glyph unicode="Q" horiz-adv-x="1640" d="M124 744q0 352 218 576q196 196 482 196q284 0 480 -196q220 -224 220 -574q0 -430 -328 -662q102 -182 236 -182q78 0 150 72l34 -42q-98 -128 -230 -128q-172 0 -296 222q-128 -60 -268 -60q-290 0 -480 194q-218 222 -218 584zM290 742q0 -506 344 -692l2 6 q-84 78 -84 184q0 96 68 164q72 74 188 74q128 0 222 -106q52 -54 134 -210q194 200 194 580q0 368 -194 562q-140 140 -338 140q-250 0 -400 -212q-136 -188 -136 -490zM632 212q0 -176 210 -176q68 0 136 24q82 26 78 38q-124 276 -268 276q-64 0 -110 -46t-46 -116z" />
<glyph unicode="R" horiz-adv-x="1424" d="M104 20v58q108 6 146 24q62 28 62 136v1004q0 100 -38 126q-38 30 -170 40v56h648q210 0 334 -70q178 -100 178 -290q0 -208 -172 -310q-104 -58 -246 -66v-8q120 -42 232 -218q48 -78 166 -304q62 -120 196 -120v-58h-292q-132 334 -270 532q-114 154 -280 154h-144 v-468q0 -102 58 -134q42 -20 156 -26v-58h-564zM454 778h184q472 0 472 312q0 310 -396 310h-78q-54 0 -98 -12q-84 -20 -84 -144v-466z" />
<glyph unicode="S" horiz-adv-x="1258" d="M144 24v478h58q22 -188 122 -298q130 -138 340 -138q138 0 220 76q88 78 88 214q0 102 -74 182q-66 72 -280 158l-38 16q-224 88 -294 140q-128 98 -128 260q0 182 134 290q124 98 312 98q164 0 326 -88q34 -20 50 -20q28 0 32 82h64v-422h-62q-16 156 -110 256 q-108 118 -294 118q-148 0 -236 -96q-70 -76 -70 -184q0 -182 268 -278l50 -18q324 -118 418 -224q88 -100 88 -238q0 -210 -170 -322q-124 -82 -294 -82q-188 0 -348 102q-46 30 -72 30q-38 0 -38 -92h-62z" />
<glyph unicode="T" horiz-adv-x="1278" d="M14 1086l30 378h1204l20 -378h-62q-10 104 -48 186q-58 124 -284 124h-168v-1158q0 -100 56 -132q42 -22 162 -28v-58h-576v58q118 6 160 24q58 24 58 136v1158h-154q-216 0 -280 -114q-44 -72 -60 -196h-58z" />
<glyph unicode="U" horiz-adv-x="1622" d="M42 1408v56h572v-56q-110 -6 -162 -34q-50 -26 -50 -132v-634q0 -532 446 -532q444 0 444 532v636q0 106 -54 134q-42 24 -150 30v56h508v-56q-94 -6 -140 -26q-64 -26 -64 -138v-644q0 -628 -558 -628q-576 0 -576 616v654q0 104 -58 134q-48 22 -158 32z" />
<glyph unicode="V" horiz-adv-x="1470" d="M-6 1408v56h542v-56q-180 -4 -180 -74q0 -40 24 -100l382 -1020l390 1032q22 60 22 92q0 66 -176 70v56h488v-56q-164 -4 -228 -164l-490 -1268h-60l-488 1270q-58 156 -226 162z" />
<glyph unicode="W" horiz-adv-x="1966" d="M0 1406v58h530v-56q-110 -4 -148 -22q-40 -18 -40 -68q0 -42 20 -106l292 -958h6l308 942l-14 48q-34 130 -110 150q-40 10 -100 14v56h524v-56q-88 -4 -120 -8q-70 -14 -70 -78q0 -28 18 -94l282 -964h6l288 972q16 58 16 86q0 82 -192 86v56h484v-58q-48 0 -88 -14 q-82 -20 -122 -156l-380 -1248h-66l-314 1060h-6l-344 -1060h-66l-386 1236q-44 140 -116 164q-36 14 -92 18z" />
<glyph unicode="X" horiz-adv-x="1476" d="M0 20v58q162 2 292 176l372 502l-340 464q-134 184 -288 188v56h556v-56q-172 -4 -172 -64q0 -34 56 -112l282 -386l304 408q48 64 48 98q0 52 -178 56v56h514v-56q-156 -4 -288 -180l-342 -454l376 -512q132 -182 290 -184v-58h-558v58q170 0 170 62q0 38 -52 108 l-318 432l-338 -452q-48 -66 -48 -94q0 -56 178 -56v-58h-516z" />
<glyph unicode="Y" horiz-adv-x="1404" d="M-6 1408v56h562v-56q-178 -4 -178 -68q0 -42 36 -108l312 -546l344 584q20 32 20 62q0 70 -190 76v56h516v-56q-154 -4 -262 -182l-378 -622v-366q0 -98 60 -132q42 -22 158 -28v-58h-574v58q118 6 158 24q58 28 58 136v348l-392 660q-96 158 -250 162z" />
<glyph unicode="Z" horiz-adv-x="1294" d="M70 20v102l926 1272h-368q-268 0 -352 -72q-90 -78 -112 -248h-58l28 390h1028v-76l-936 -1292h472q242 0 326 60q108 70 124 302h58l-30 -438h-1106z" />
<glyph unicode="[" horiz-adv-x="696" d="M236 -410v1974h372v-70h-240v-1834h240v-70h-372z" />
<glyph unicode="\" d="M0 1408v56h490v-56q-156 -4 -156 -80q0 -32 38 -90l280 -440l310 468q26 36 26 68q0 70 -172 74v56h456v-56q-44 0 -84 -20q-54 -26 -150 -160l-298 -428h378v-70h-428v-178h428v-70h-428v-244q0 -104 60 -132q48 -22 156 -28v-58h-562v58q110 6 154 26q60 28 60 134v244 h-424v70h424v178h-424v70h374l-292 446q-90 134 -146 150q-30 12 -70 12z" />
<glyph unicode="]" horiz-adv-x="696" d="M92 -340h240v1834h-240v70h370v-1974h-370v70z" />
<glyph unicode="^" horiz-adv-x="1024" d="M60 732l452 532l450 -532l-76 -60l-374 456l-376 -456z" />
<glyph unicode="_" horiz-adv-x="1024" d="M0 -148h1024v-102h-1024v102z" />
<glyph unicode="`" horiz-adv-x="1024" d="M274 1410l100 96l248 -254l-42 -46z" />
<glyph unicode="a" horiz-adv-x="1112" d="M114 266q0 324 550 358l104 6v36q0 308 -242 308q-160 0 -218 -106q58 -10 58 -74q0 -88 -90 -88q-100 0 -100 100q0 84 94 154q112 84 268 84q360 0 360 -360v-416q0 -204 70 -204q42 0 72 62l40 -30q-46 -106 -148 -106q-144 0 -150 176q-124 -180 -348 -180 q-134 0 -224 72q-96 78 -96 208zM256 278q0 -94 60 -154q58 -56 146 -56q120 0 214 74q64 52 92 134v282l-86 -4q-426 -22 -426 -276z" />
<glyph unicode="b" horiz-adv-x="1232" d="M32 1402v62q174 4 308 32v-662q126 204 344 204q170 0 292 -120q144 -146 144 -396q0 -252 -146 -400q-126 -124 -294 -124q-212 0 -336 172l-66 -166h-70v1272q0 94 -46 112q-30 14 -130 14zM340 374q0 -128 134 -224q90 -66 192 -66q156 0 242 148q68 114 68 286 q0 232 -120 350q-86 86 -200 86q-150 0 -252 -140q-64 -86 -64 -174v-266z" />
<glyph unicode="c" horiz-adv-x="1096" d="M118 508q0 250 150 400q130 136 334 136q172 0 288 -90q88 -70 88 -150q0 -106 -94 -106q-90 0 -90 84q0 60 48 80q-74 112 -232 112q-180 0 -268 -160q-72 -128 -72 -294q0 -190 98 -312q98 -126 254 -126q210 0 330 212l58 -46q-134 -260 -414 -260q-204 0 -338 138 q-140 144 -140 382z" />
<glyph unicode="d" horiz-adv-x="1258" d="M118 514q0 254 146 402q124 122 292 122q214 0 340 -178v414q0 96 -48 114q-30 14 -134 14v62q168 0 314 32v-1286q0 -96 56 -118q40 -14 124 -14v-58h-306l-10 176q-120 -198 -338 -198q-174 0 -294 118q-142 144 -142 398zM262 520q0 -206 96 -326q90 -112 224 -112 q146 0 242 134q72 100 72 200v270q0 112 -126 202q-88 66 -196 66q-140 0 -228 -120q-84 -122 -84 -314z" />
<glyph unicode="e" horiz-adv-x="1144" d="M118 510q0 256 146 402q128 132 326 132q192 0 312 -124q130 -130 130 -340v-36h-772v-36q0 -202 124 -328q102 -102 250 -102q220 0 340 214l54 -44q-130 -260 -418 -260q-214 0 -354 140q-138 142 -138 382zM268 622h626q-6 176 -102 272q-84 80 -204 80 q-142 0 -238 -124q-68 -90 -82 -228z" />
<glyph unicode="f" horiz-adv-x="642" d="M54 932v76h190v140q0 172 96 268q84 84 214 84q128 0 206 -62q42 -36 42 -86q0 -90 -82 -90q-88 0 -88 80q0 36 24 64q-32 32 -96 32q-182 0 -182 -290v-140h284v-76h-284v-726q0 -88 48 -110q42 -18 138 -18v-58h-496v58q68 0 108 12q68 22 68 116v726h-190z" />
<glyph unicode="g" horiz-adv-x="1128" d="M100 -128q0 200 298 246v6q-196 44 -196 158q0 100 124 136q-186 84 -186 270q0 166 138 268q114 82 268 82q124 0 216 -40q110 128 226 128q100 0 100 -86q0 -74 -74 -74q-66 0 -70 78q-80 -10 -126 -74q136 -92 136 -270q0 -188 -158 -278q-98 -56 -226 -56 q-84 0 -178 24q-74 -30 -74 -86q0 -102 226 -116l116 -8q386 -28 386 -278q0 -130 -116 -214q-130 -94 -362 -94q-202 0 -334 74q-134 74 -134 204zM236 -114q0 -108 102 -166q88 -52 228 -52q200 0 294 98q52 52 52 122q0 192 -356 192q-320 0 -320 -194zM274 694 q0 -258 272 -258q138 0 214 82q64 68 64 184q0 112 -74 186q-78 80 -206 80q-118 0 -194 -76t-76 -198z" />
<glyph unicode="h" horiz-adv-x="1262" d="M56 20v58q72 0 114 12q66 18 66 118v1068q0 94 -48 112q-30 14 -130 14v62q168 4 312 32v-660q132 198 342 198q336 0 336 -368v-458q0 -92 48 -112q46 -18 130 -18v-58h-492v58q64 0 112 10q66 18 66 120v430q0 308 -228 308q-222 0 -314 -244v-494q0 -92 48 -112 q46 -18 130 -18v-58h-492z" />
<glyph unicode="i" horiz-adv-x="616" d="M78 20v58q68 0 110 12q68 18 68 118v612q0 96 -48 114q-32 12 -130 12v62q168 4 314 34v-834q0 -92 46 -112q46 -18 128 -18v-58h-488zM222 1366q0 104 102 104q44 0 74 -30q30 -32 30 -74q0 -102 -104 -102q-102 0 -102 102z" />
<glyph unicode="j" horiz-adv-x="624" d="M-112 -256q0 98 98 98q88 0 88 -84q0 -58 -56 -76q30 -34 84 -34q154 0 154 274v898q0 96 -48 114q-34 14 -130 14v60q168 4 312 34v-1102q0 -348 -288 -348q-94 0 -158 52q-56 46 -56 100zM222 1366q0 104 102 104q42 0 74 -30q30 -32 30 -74q0 -102 -104 -102 q-102 0 -102 102z" />
<glyph unicode="k" horiz-adv-x="1156" d="M56 20v58q72 0 114 12q66 18 66 118v1068q0 94 -48 112q-30 14 -130 14v62q168 4 312 32v-970l356 298q64 52 64 82q0 40 -132 42v60h442v-60q-112 -8 -242 -114l-270 -220l328 -390q120 -146 228 -146v-58h-426v58q108 0 108 42q0 22 -48 80l-284 344l-124 -104v-232 q0 -92 48 -112q46 -18 136 -18v-58h-498z" />
<glyph unicode="l" horiz-adv-x="600" d="M56 20v58q66 0 112 12q70 16 70 116v1070q0 94 -48 112q-30 14 -132 14v62q164 4 314 32v-1290q0 -92 56 -114q40 -14 124 -14v-58h-496z" />
<glyph unicode="m" horiz-adv-x="1838" d="M78 20v58q74 0 112 12q68 18 68 118v612q0 96 -48 114q-34 12 -132 12v62q182 4 312 34v-208q114 200 314 200q242 0 284 -222q110 222 334 222q306 0 306 -368v-458q0 -98 58 -116q40 -14 118 -14h2v-58h-494v58q78 0 126 16q54 16 54 114v426q0 162 -36 224 q-52 90 -164 90q-198 0 -282 -246v-494q0 -94 46 -112t134 -18v-58h-498v58q72 0 116 12q66 18 66 118v428q0 168 -34 224q-50 88 -160 88q-202 0 -284 -244v-496q0 -94 44 -112q46 -18 134 -18v-58h-496z" />
<glyph unicode="n" horiz-adv-x="1286" d="M78 20v58q74 0 112 12q68 18 68 118v612q0 96 -48 114q-34 12 -132 12v62q176 4 310 34v-216q126 208 348 208q336 0 336 -368v-458q0 -94 58 -116q38 -14 120 -14v-58h-494v58h2q64 0 108 10q68 18 68 120v430q0 308 -228 308q-222 0 -310 -244v-494q0 -94 54 -116 q40 -14 122 -14v-58h-494z" />
<glyph unicode="o" horiz-adv-x="1206" d="M118 518q0 244 150 394q134 136 336 136t338 -138q148 -148 148 -386q0 -254 -148 -400q-138 -136 -338 -136q-204 0 -340 136q-146 146 -146 394zM270 518q0 -214 98 -338q90 -114 236 -114q180 0 268 160q66 126 66 290q0 218 -98 344q-92 116 -236 116 q-152 0 -244 -128q-90 -126 -90 -330z" />
<glyph unicode="p" horiz-adv-x="1260" d="M58 -296q86 4 126 18q56 14 56 112v984q0 100 -48 116q-34 12 -130 12v62q180 4 310 34v-200q126 196 340 196q174 0 294 -118q142 -144 142 -398q0 -250 -146 -396q-122 -126 -292 -126q-216 0 -334 176v-342q0 -84 46 -108q34 -22 140 -22v-56h-504v56zM376 336 q0 -96 122 -186q90 -66 196 -66q158 0 244 148q66 116 66 286q0 234 -120 350q-84 84 -198 84q-148 0 -246 -136q-64 -88 -64 -160v-320z" />
<glyph unicode="q" horiz-adv-x="1226" d="M118 512q0 248 150 398q126 128 302 128q216 0 336 -168l56 154h68v-1190q0 -88 48 -110q40 -20 124 -20v-56h-492v56q88 4 128 18q56 14 56 112v374q-120 -210 -340 -210q-172 0 -292 118q-144 146 -144 396zM262 520q0 -204 96 -324q88 -114 226 -114q144 0 240 134 q68 92 68 174v312q0 102 -120 188q-84 62 -192 62q-146 0 -232 -122q-86 -120 -86 -310z" />
<glyph unicode="r" horiz-adv-x="830" d="M78 20v58q74 0 112 12q68 18 68 118v612q0 96 -48 114q-34 12 -130 12v62q176 4 306 34v-262q46 112 142 194q86 68 182 68q118 0 118 -106q0 -94 -86 -94t-86 84q0 6 4 30q-80 -8 -164 -104q-66 -78 -100 -190v-454q0 -94 44 -112q46 -18 140 -18v-58h-502z" />
<glyph unicode="s" horiz-adv-x="976" d="M128 10v376h62q10 -146 88 -224q100 -102 250 -102q214 0 214 188q0 84 -64 136q-42 34 -198 88l-62 20q-140 46 -188 86q-90 72 -90 186q0 112 84 194q92 86 240 86q128 0 228 -62q30 -16 50 -16q22 0 28 58h52v-318h-58q-16 116 -82 182q-86 86 -206 86 q-100 0 -166 -66q-48 -50 -48 -118q0 -120 208 -186l52 -16q172 -54 242 -108q102 -78 102 -206q0 -152 -114 -228q-90 -62 -220 -62q-114 0 -244 72q-44 26 -68 26q-34 0 -34 -72h-58z" />
<glyph unicode="t" horiz-adv-x="680" d="M38 932v64q126 4 178 78q44 64 70 214h60v-280h304v-76h-304v-660q0 -208 128 -208q90 0 164 94l44 -44q-104 -140 -244 -140q-226 0 -226 260v698h-174z" />
<glyph unicode="u" horiz-adv-x="1248" d="M44 946v62q172 4 310 34v-664q0 -312 228 -312q106 0 196 72q90 74 124 200v484q0 92 -50 112q-28 12 -128 12v62q154 4 310 34v-834q0 -94 60 -116q40 -14 122 -14v-58h-302l-10 166q-124 -206 -346 -206q-338 0 -338 366v474q0 100 -46 114q-34 10 -130 12z" />
<glyph unicode="v" horiz-adv-x="1092" d="M-2 952v56h434v-56q-132 -4 -132 -76q0 -22 14 -56l258 -680l266 678q16 42 16 62q0 68 -146 72v56h398v-56q-126 -4 -172 -118l-348 -862h-72l-340 840q-36 88 -78 116q-30 20 -98 24z" />
<glyph unicode="w" horiz-adv-x="1598" d="M-2 952v56h428v-56q-134 -4 -134 -72q0 -24 14 -62l230 -660l242 632l-8 22q-26 86 -56 110q-32 26 -116 30v56h420v-56q-132 -4 -132 -72q0 -18 16 -66l224 -656l222 660q14 40 14 68q0 62 -146 66v56h394v-56q-128 -4 -166 -112l-306 -868h-66l-254 718l-282 -718h-70 l-294 840q-46 136 -174 140z" />
<glyph unicode="x" horiz-adv-x="1066" d="M0 20v58q112 0 220 134l250 306l-226 294q-54 72 -94 104q-42 30 -122 32v60h434v-60q-122 -2 -122 -42q0 -22 50 -86l168 -224l202 250q36 44 36 64q0 36 -146 38v60h392v-60q-58 0 -92 -18q-44 -20 -122 -114l-226 -270l248 -328q100 -136 224 -140v-58h-440v58 q122 0 122 40q0 20 -48 88l-192 258l-228 -280q-36 -44 -36 -66q0 -40 140 -40v-58h-392z" />
<glyph unicode="y" horiz-adv-x="1094" d="M-2 952v56h434v-56q-132 -4 -132 -68q0 -20 16 -62l272 -640l250 636q14 34 14 58q0 72 -140 76v56h394v-56q-128 -4 -174 -118l-424 -1056q-70 -178 -212 -178q-148 0 -148 118q0 98 98 98q88 0 88 -88q0 -14 -2 -20l-4 -20q72 4 116 126l80 216l-348 782 q-36 82 -72 110q-30 26 -106 30z" />
<glyph unicode="z" horiz-adv-x="944" d="M68 20v60l630 866h-254q-168 0 -224 -56q-46 -42 -62 -186h-54l18 304h732v-58l-628 -864h324q162 0 218 54q48 46 62 196h56l-16 -316h-802z" />
<glyph unicode="{" horiz-adv-x="694" d="M88 562v50q148 16 148 244v432q0 276 276 276h76v-58h-58q-164 0 -164 -208v-438q0 -226 -178 -272q178 -52 178 -274v-460q0 -206 164 -206h58v-58h-76q-276 0 -276 274v460q0 220 -148 238z" />
<glyph unicode="|" horiz-adv-x="402" d="M150 -338v1844h102v-1844h-102z" />
<glyph unicode="}" horiz-adv-x="694" d="M104 -352h58q166 0 166 206v460q0 222 178 274q-178 46 -178 272v438q0 208 -166 208h-58v58h78q276 0 276 -276v-432q0 -228 148 -244v-50q-148 -18 -148 -238v-460q0 -274 -276 -274h-78v58z" />
<glyph unicode="~" horiz-adv-x="1024" d="M246 1308q40 126 158 126q68 0 166 -62q58 -36 98 -36q62 0 96 74l52 -40q-46 -120 -154 -120q-68 0 -150 50q-78 48 -116 48q-68 0 -98 -74z" />
<glyph unicode="&#xa1;" horiz-adv-x="578" d="M180 1366q0 112 116 112q112 0 112 -112q0 -32 -18 -64q-34 -50 -94 -50q-46 0 -78 30q-38 34 -38 84zM212 166q0 72 18 376q0 36 4 86t4 64l22 362h62l24 -362q24 -360 24 -516q0 -176 -80 -176q-78 0 -78 166z" />
<glyph unicode="&#xa2;" horiz-adv-x="1148" d="M138 838q0 202 120 346q146 170 374 170q40 0 78 -6l64 196h78l-68 -212q228 -74 228 -240q0 -106 -98 -106q-96 0 -96 94q0 60 42 84q-28 70 -96 102l-266 -836q74 -38 162 -38q220 0 364 246l42 -28q-130 -300 -430 -300q-92 0 -168 26l-84 -262h-78l92 292 q-260 138 -260 472zM288 838q0 -242 144 -362l260 814q-30 8 -60 8q-150 0 -248 -136q-96 -130 -96 -324z" />
<glyph unicode="&#xa3;" horiz-adv-x="1516" d="M178 290q6 222 248 222q110 0 236 -48q-4 126 -104 374h-278v56h254l-2 4l-6 12q-62 152 -62 272q0 162 104 266q118 126 306 126q138 0 250 -78q116 -80 116 -188q0 -122 -110 -122t-110 106q0 66 54 90q-40 126 -198 126q-132 0 -206 -104q-62 -86 -62 -220 q0 -118 70 -290h406v-56h-386q78 -224 78 -368q0 -36 -2 -60q62 -36 124 -80q162 -116 244 -116q128 0 198 216l44 -22q-76 -334 -254 -334q-108 0 -272 134q-60 50 -108 86q-74 -220 -310 -220q-162 0 -232 116q-26 38 -30 100zM252 290q16 -142 188 -142q168 0 212 212 q-134 80 -238 80q-156 0 -162 -150z" />
<glyph unicode="&#xa4;" d="M170 236l124 124q-96 120 -96 276q0 154 96 278l-124 118l64 68l126 -120q126 94 276 94q154 0 278 -94l120 120l66 -68l-120 -118q94 -128 94 -278t-94 -274l120 -126l-66 -64l-120 122q-124 -96 -276 -96q-162 0 -278 96l-126 -122zM292 636q0 -92 42 -168 q102 -176 302 -176q76 0 142 30q204 92 204 314q0 150 -110 254q-96 94 -234 94q-92 0 -168 -44q-178 -98 -178 -304z" />
<glyph unicode="&#xa5;" horiz-adv-x="1660" d="M98 1490v46h578v-46q-206 -6 -206 -72q0 -24 24 -64l230 -362h270l216 340q22 32 22 58q0 88 -190 100v46h502v-46q-154 -12 -258 -174l-208 -324h374v-56h-410l-136 -210v-56h546v-54h-546v-300q0 -98 36 -124q36 -28 152 -34v-46h-510v46q144 10 170 52q18 28 18 106 v300h-546v54h546v16l-158 250h-388v56h354l-220 348q-84 136 -262 150zM758 936l100 -156l100 156h-200z" />
<glyph unicode="&#xa6;" horiz-adv-x="402" d="M150 -338v764h102v-764h-102zM150 734v772h102v-772h-102z" />
<glyph unicode="&#xa7;" horiz-adv-x="1394" d="M258 146q0 120 118 120q110 0 110 -104q0 -70 -62 -94q66 -152 286 -152q100 0 174 44q120 68 120 190q0 136 -250 260l-238 116q-240 118 -240 278q0 172 220 280q-196 114 -196 292q0 142 116 230q120 92 298 92q180 0 300 -104q86 -70 86 -156q0 -120 -106 -120 q-108 0 -108 106q0 64 52 96q-58 122 -224 122q-118 0 -200 -58q-96 -68 -96 -172q0 -156 256 -270l162 -72q294 -132 294 -356q0 -164 -184 -256q178 -114 178 -262q0 -164 -140 -260q-116 -78 -280 -78q-184 0 -320 90q-126 86 -126 198zM388 852q0 -114 218 -222 l230 -112q14 -8 48 -24q126 66 126 176q0 182 -292 312l-140 60l-20 10q-170 -78 -170 -200z" />
<glyph unicode="&#xa8;" horiz-adv-x="2048" d="M622 1444q0 56 44 92q34 24 72 24q30 0 56 -14q60 -34 60 -102q0 -34 -18 -62q-34 -54 -98 -54q-48 0 -80 32q-36 34 -36 84zM1194 1444q0 56 46 92q34 24 70 24q30 0 56 -14q62 -34 62 -102q0 -34 -18 -62q-34 -54 -100 -54q-46 0 -78 32q-38 34 -38 84z" />
<glyph unicode="&#xa9;" horiz-adv-x="2048" d="M184 750q0 198 96 380q174 334 536 428q100 28 204 28q268 0 494 -158q350 -250 350 -680q0 -270 -166 -494q-250 -342 -676 -342q-282 0 -512 178q-326 250 -326 660zM276 748q0 -220 124 -408q220 -338 626 -338q222 0 412 126q334 222 334 622q0 156 -68 306 q-144 318 -476 412q-104 30 -200 30q-226 0 -414 -124q-338 -218 -338 -626zM536 746q0 140 60 266q138 284 452 284q140 0 258 -82q30 -20 40 -20q26 0 26 62h60v-316h-62q-24 116 -92 182q-94 94 -224 94q-170 0 -272 -134q-92 -126 -92 -334q0 -158 66 -272 q102 -176 294 -176q266 0 352 280l72 -26q-40 -152 -142 -240q-120 -104 -286 -104q-224 0 -368 156q-142 150 -142 380z" />
<glyph unicode="&#xaa;" horiz-adv-x="856" d="M118 640v76h624v-76h-624zM144 1006q0 140 152 192q64 22 200 38l58 6v16q0 182 -140 182q-92 0 -120 -56q24 -12 24 -46q0 -66 -76 -66q-68 0 -68 70q0 60 62 106q70 52 190 52q238 0 238 -230v-264q0 -112 38 -112q32 0 52 44l42 -26q-40 -84 -118 -84q-96 0 -112 94 q-86 -98 -210 -98q-212 0 -212 182zM258 1016q0 -122 118 -122q102 0 156 80q22 26 22 44v160l-62 -4q-234 -16 -234 -158z" />
<glyph unicode="&#xab;" horiz-adv-x="1036" d="M166 584v42l286 400l54 -22l-198 -396l198 -400l-50 -24zM544 584v42l286 400l56 -22l-202 -396l202 -400l-54 -24z" />
<glyph unicode="&#xac;" horiz-adv-x="2048" d="M142 1066v94h1714v-792h-94v698h-1620z" />
<glyph unicode="&#xad;" horiz-adv-x="604" d="M82 544v112h442v-112h-442z" />
<glyph unicode="&#xae;" horiz-adv-x="2048" d="M184 750q0 198 96 380q174 334 536 428q100 28 204 28q268 0 494 -158q350 -250 350 -680q0 -270 -166 -494q-250 -342 -676 -342q-282 0 -512 178q-326 250 -326 660zM276 748q0 -220 124 -408q220 -338 626 -338q222 0 412 126q334 222 334 622q0 156 -68 306 q-144 318 -476 412q-104 30 -200 30q-226 0 -414 -124q-338 -218 -338 -626zM582 246v68q92 4 122 24q26 20 26 80v682q0 68 -30 84q-28 16 -116 22v70h458q384 0 384 -266q0 -120 -96 -198q-70 -54 -180 -64q66 -32 126 -116q30 -44 122 -216q36 -68 58 -86q28 -18 94 -18 v-66h-224q-108 280 -226 412q-60 66 -160 66h-84v-306q0 -60 28 -82q28 -18 122 -22v-68h-424zM856 798h124q312 0 312 200q0 202 -264 202h-46q-68 0 -92 -12q-34 -14 -34 -88v-302z" />
<glyph unicode="&#xaf;" horiz-adv-x="1024" d="M254 1276v90h518v-90h-518z" />
<glyph unicode="&#xb0;" horiz-adv-x="614" d="M92 1496q0 112 96 178q56 36 118 36q52 0 98 -24q118 -58 118 -190q0 -78 -52 -140q-64 -76 -162 -76q-40 0 -82 16q-134 56 -134 200zM150 1496q0 -42 22 -80q46 -78 136 -78q60 0 106 42q52 46 52 116q0 76 -60 122q-44 36 -98 36q-38 0 -80 -24q-78 -46 -78 -134z" />
<glyph unicode="&#xb1;" horiz-adv-x="1476" d="M36 126v94h1404v-94h-1404zM36 922v94h654v508h94v-508h656v-94h-656v-508h-94v508h-654z" />
<glyph unicode="&#xb2;" horiz-adv-x="738" d="M104 726v46q34 138 216 278l36 30q148 114 148 196q0 134 -144 134q-112 0 -144 -84q52 -6 52 -66q0 -64 -68 -64q-78 0 -78 88q0 74 58 130q70 66 186 66q86 0 152 -34q102 -60 102 -176q0 -88 -54 -144q-44 -44 -158 -108l-44 -24q-132 -78 -166 -184h274q82 0 104 136 h60l-24 -220h-508z" />
<glyph unicode="&#xb3;" horiz-adv-x="738" d="M124 874q0 82 82 82q64 0 64 -66q0 -50 -48 -58q34 -58 142 -58q182 0 182 150q0 144 -182 144h-72v62h72q164 0 164 154q0 126 -150 126q-90 0 -138 -54q48 -16 48 -62q0 -62 -70 -62q-74 0 -74 78q0 60 56 106q72 54 180 54q88 0 152 -30q106 -52 106 -156 q0 -124 -148 -176v-6q168 -46 168 -182q0 -110 -98 -168q-76 -46 -190 -46q-98 0 -168 44q-78 50 -78 124z" />
<glyph unicode="&#xb4;" horiz-adv-x="2048" d="M768 1308l268 254h358l-538 -254h-88z" />
<glyph unicode="&#xb5;" horiz-adv-x="2048" />
<glyph unicode="&#xb6;" horiz-adv-x="2048" d="M516 1336q0 210 184 312q92 48 224 48h412v-1836h-94v1754h-270v-1754h-94v1128q-136 2 -228 74q-134 102 -134 274z" />
<glyph unicode="&#xb7;" horiz-adv-x="488" d="M136 600q0 54 42 88q32 24 70 24q24 0 50 -12q60 -30 60 -100q0 -34 -18 -62q-34 -48 -92 -48q-48 0 -82 34q-30 34 -30 76z" />
<glyph unicode="&#xb8;" horiz-adv-x="1024" d="M304 -404q286 4 286 128q0 96 -210 100v34l68 162h104l-60 -136q230 -2 230 -164q0 -194 -396 -198z" />
<glyph unicode="&#xb9;" horiz-adv-x="738" d="M170 1374v60q180 10 264 54v-642q0 -46 44 -54q26 -8 96 -8v-58h-390v58q104 0 128 18q16 10 16 44v490q0 38 -48 38h-110z" />
<glyph unicode="&#xba;" horiz-adv-x="856" d="M112 1170q0 154 104 252q84 82 214 82q166 0 256 -120q68 -88 68 -214t-64 -218q-90 -122 -260 -122q-116 0 -200 68q-118 96 -118 272zM118 640v76h624v-76h-624zM230 1170q0 -278 200 -278q204 0 204 278q0 270 -204 270q-200 0 -200 -270z" />
<glyph unicode="&#xbb;" horiz-adv-x="1036" d="M154 208l200 400l-200 396l56 22l286 -400v-42l-290 -400zM534 208l198 400l-198 396l52 22l288 -400v-42l-290 -400z" />
<glyph unicode="&#xbc;" horiz-adv-x="1570" d="M170 1374v60q180 10 264 54v-642q0 -46 44 -54q26 -8 96 -8v-58h-390v58q104 0 128 18q16 10 16 44v490q0 38 -48 38h-110zM252 34l1042 1470l76 -50l-1044 -1468zM846 218v80l400 476h72v-482h142v-74h-142v-72q0 -52 30 -62q18 -4 82 -8v-56h-322v56q84 2 100 20 q16 12 16 50v72h-378zM934 292h290v354z" />
<glyph unicode="&#xbd;" horiz-adv-x="1570" d="M170 1374v60q180 10 264 54v-642q0 -46 44 -54q26 -8 96 -8v-58h-390v58q104 0 128 18q16 10 16 44v490q0 38 -48 38h-110zM252 34l1042 1470l76 -50l-1044 -1468zM936 20v50q34 150 214 280l36 26q148 108 148 198q0 136 -146 136q-112 0 -144 -88q54 -2 54 -60 q0 -66 -70 -66q-74 0 -74 88q0 72 56 126q70 70 186 70q86 0 152 -34q102 -60 102 -176q0 -88 -56 -144q-44 -44 -156 -110l-44 -26q-138 -80 -166 -184h272q84 0 106 138h60l-26 -224h-504z" />
<glyph unicode="&#xbe;" horiz-adv-x="1570" d="M124 874q0 82 82 82q64 0 64 -66q0 -50 -48 -58q34 -58 142 -58q182 0 182 150q0 144 -182 144h-72v62h72q164 0 164 154q0 126 -150 126q-90 0 -138 -54q48 -16 48 -62q0 -62 -70 -62q-74 0 -74 78q0 60 56 106q72 54 180 54q88 0 152 -30q106 -52 106 -156 q0 -124 -148 -176v-6q168 -46 168 -182q0 -110 -98 -168q-76 -46 -190 -46q-98 0 -168 44q-78 50 -78 124zM252 34l1042 1470l76 -50l-1044 -1468zM846 218v80l400 476h72v-482h144v-74h-144v-72q0 -52 30 -62q18 -4 84 -8v-56h-322v56q84 2 102 20q14 12 14 50v72h-380z M936 292h290v354z" />
<glyph unicode="&#xbf;" horiz-adv-x="1032" d="M118 370q0 202 214 348l64 42q150 100 150 276v50h82v-52q0 -192 -138 -314l-38 -36q-176 -158 -176 -308q0 -136 80 -218q78 -82 198 -82q150 0 234 114q40 58 46 124q-102 8 -102 98q0 98 102 98q112 0 112 -150q0 -86 -50 -168q-122 -194 -358 -194q-178 0 -302 100 q-118 94 -118 272zM464 1360q0 52 38 86q36 28 74 28q114 0 114 -112q0 -26 -12 -52q-30 -62 -100 -62q-36 0 -68 22q-46 34 -46 90z" />
<glyph unicode="&#xc0;" horiz-adv-x="1484" d="M-6 20v58q96 0 140 32q44 34 86 132l500 1244h54l506 -1256q58 -148 218 -152v-58h-534v58q180 0 180 74q0 40 -24 98l-112 278h-576l-112 -288q-22 -62 -22 -88q0 -72 180 -74v-58h-484zM420 1774l100 100l280 -260l-46 -52zM462 606h520l-262 654z" />
<glyph unicode="&#xc1;" horiz-adv-x="1484" d="M-6 20v58q96 0 140 32q44 34 86 132l500 1244h54l506 -1256q58 -148 218 -152v-58h-534v58q180 0 180 74q0 40 -24 98l-112 278h-576l-112 -288q-22 -62 -22 -88q0 -72 180 -74v-58h-484zM462 606h520l-262 654zM660 1614l280 260l98 -100l-330 -212z" />
<glyph unicode="&#xc2;" horiz-adv-x="1484" d="M-6 20v58q96 0 140 32q44 34 86 132l500 1244h54l506 -1256q58 -148 218 -152v-58h-534v58q180 0 180 74q0 40 -24 98l-112 278h-576l-112 -288q-22 -62 -22 -88q0 -72 180 -74v-58h-484zM462 606h520l-262 654zM462 1636l230 214h98l230 -214l-48 -42l-230 152 l-232 -152z" />
<glyph unicode="&#xc3;" horiz-adv-x="1484" d="M-6 20v58q96 0 140 32q44 34 86 132l500 1244h54l506 -1256q58 -148 218 -152v-58h-534v58q180 0 180 74q0 40 -24 98l-112 278h-576l-112 -288q-22 -62 -22 -88q0 -72 180 -74v-58h-484zM450 1660q60 140 184 140q74 0 178 -66q68 -44 126 -44q72 0 118 82l54 -36 q-58 -140 -184 -140q-78 0 -182 66q-68 44 -122 44q-78 0 -120 -82zM462 606h520l-262 654z" />
<glyph unicode="&#xc4;" horiz-adv-x="1484" d="M-6 20v58q96 0 140 32q44 34 86 132l500 1244h54l506 -1256q58 -148 218 -152v-58h-534v58q180 0 180 74q0 40 -24 98l-112 278h-576l-112 -288q-22 -62 -22 -88q0 -72 180 -74v-58h-484zM428 1704q0 98 96 98q98 0 98 -98q0 -96 -98 -96q-96 0 -96 96zM462 606h520 l-262 654zM860 1704q0 98 98 98q96 0 96 -98q0 -96 -96 -96q-98 0 -98 96z" />
<glyph unicode="&#xc5;" horiz-adv-x="1484" d="M-6 20v58q96 0 140 32q44 34 86 132l500 1244h54l506 -1256q58 -148 218 -152v-58h-534v58q180 0 180 74q0 40 -24 98l-112 278h-576l-112 -288q-22 -62 -22 -88q0 -72 180 -74v-58h-484zM462 606h520l-262 654zM580 1714q0 76 62 126q48 34 102 34q36 0 68 -14 q96 -44 96 -146q0 -56 -38 -102q-50 -60 -126 -60q-40 0 -74 18q-90 48 -90 144zM642 1714q0 -104 102 -104t102 104t-102 104t-102 -104z" />
<glyph unicode="&#xc6;" horiz-adv-x="2016" d="M-6 20v60q184 10 266 176l504 1006q18 36 18 74q0 62 -202 70v56h1262l24 -404h-58q-20 216 -98 274q-90 68 -312 68h-136q-108 0 -146 -36q-32 -28 -32 -118v-442h200q106 0 152 42q50 48 60 170h60v-502h-60q-8 130 -60 176q-46 42 -152 42h-200v-492q0 -96 40 -124 q40 -30 138 -30h136q254 0 336 82q84 84 100 294h62l-30 -442h-1128v58q128 6 168 36q42 36 42 126v476h-356l-254 -514q-14 -24 -14 -48q0 -64 186 -74v-60h-516zM626 794h322v594h-28z" />
<glyph unicode="&#xc7;" horiz-adv-x="1496" d="M124 740q0 322 188 542q200 234 514 234q212 0 390 -122q40 -28 60 -28q30 0 34 84h62v-412h-60q-28 162 -140 270q-134 132 -334 132q-286 0 -436 -240q-112 -182 -112 -456q0 -228 102 -402q158 -266 450 -266q384 0 510 424l78 -24q-68 -286 -290 -420 q-124 -76 -298 -86l-58 -116q262 -4 262 -184q0 -212 -440 -216l-24 78q322 4 322 140q0 112 -244 114v38l74 150q-328 48 -490 304q-120 196 -120 462z" />
<glyph unicode="&#xc8;" horiz-adv-x="1432" d="M106 20v58q128 10 166 36q40 32 40 126v1006q0 96 -38 122q-40 28 -168 38v56h1144l28 -404h-64q-16 210 -100 274q-90 68 -302 68h-178q-104 0 -146 -30q-36 -28 -36 -124v-442h218q112 0 154 44q50 54 60 168h62v-502h-62q-10 130 -56 172q-44 46 -158 46h-218v-490 q0 -96 38 -124q40 -30 144 -30h178q250 0 332 80q86 92 100 296h64l-30 -444h-1172zM430 1774l102 100l280 -260l-48 -52z" />
<glyph unicode="&#xc9;" horiz-adv-x="1432" d="M106 20v58q128 10 166 36q40 32 40 126v1006q0 96 -38 122q-40 28 -168 38v56h1144l28 -404h-64q-16 210 -100 274q-90 68 -302 68h-178q-104 0 -146 -30q-36 -28 -36 -124v-442h218q112 0 154 44q50 54 60 168h62v-502h-62q-10 130 -56 172q-44 46 -158 46h-218v-490 q0 -96 38 -124q40 -30 144 -30h178q250 0 332 80q86 92 100 296h64l-30 -444h-1172zM656 1614l280 260l100 -100l-332 -212z" />
<glyph unicode="&#xca;" horiz-adv-x="1432" d="M106 20v58q128 10 166 36q40 32 40 126v1006q0 96 -38 122q-40 28 -168 38v56h1144l28 -404h-64q-16 210 -100 274q-90 68 -302 68h-178q-104 0 -146 -30q-36 -28 -36 -124v-442h218q112 0 154 44q50 54 60 168h62v-502h-62q-10 130 -56 172q-44 46 -158 46h-218v-490 q0 -96 38 -124q40 -30 144 -30h178q250 0 332 80q86 92 100 296h64l-30 -444h-1172zM474 1636l230 214h96l230 -214l-48 -42l-230 152l-230 -152z" />
<glyph unicode="&#xcb;" horiz-adv-x="1432" d="M106 20v58q128 10 166 36q40 32 40 126v1006q0 96 -38 122q-40 28 -168 38v56h1144l28 -404h-64q-16 210 -100 274q-90 68 -302 68h-178q-104 0 -146 -30q-36 -28 -36 -124v-442h218q112 0 154 44q50 54 60 168h62v-502h-62q-10 130 -56 172q-44 46 -158 46h-218v-490 q0 -96 38 -124q40 -30 144 -30h178q250 0 332 80q86 92 100 296h64l-30 -444h-1172zM440 1704q0 100 96 100q98 0 98 -96q0 -100 -98 -100q-96 0 -96 96zM874 1704q0 98 96 98t96 -98q0 -96 -96 -96t-96 96z" />
<glyph unicode="&#xcc;" horiz-adv-x="776" d="M74 1774l100 100l282 -260l-48 -52zM110 20v58q130 6 170 38q36 34 36 124v1004q0 98 -40 126q-34 26 -166 36v56h562v-56q-130 -10 -170 -38q-40 -34 -40 -124v-1004q0 -96 48 -128q42 -28 162 -34v-58h-562z" />
<glyph unicode="&#xcd;" horiz-adv-x="776" d="M110 20v58q130 6 170 38q36 34 36 124v1004q0 98 -40 126q-34 26 -166 36v56h562v-56q-130 -10 -170 -38q-40 -34 -40 -124v-1004q0 -96 48 -128q42 -28 162 -34v-58h-562zM308 1614l280 260l100 -100l-332 -212z" />
<glyph unicode="&#xce;" horiz-adv-x="776" d="M110 20v58q130 6 170 38q36 34 36 124v1004q0 98 -40 126q-34 26 -166 36v56h562v-56q-130 -10 -170 -38q-40 -34 -40 -124v-1004q0 -96 48 -128q42 -28 162 -34v-58h-562zM112 1636l228 214h98l232 -214l-48 -42l-232 152l-232 -152z" />
<glyph unicode="&#xcf;" horiz-adv-x="776" d="M76 1704q0 100 98 100t98 -96q0 -100 -96 -100q-100 0 -100 96zM110 20v58q130 6 170 38q36 34 36 124v1004q0 98 -40 126q-34 26 -166 36v56h562v-56q-130 -10 -170 -38q-40 -34 -40 -124v-1004q0 -96 48 -128q42 -28 162 -34v-58h-562zM510 1704q0 98 96 98 q98 0 98 -98q0 -96 -98 -96q-96 0 -96 96z" />
<glyph unicode="&#xd0;" horiz-adv-x="1612" d="M106 20v58q126 6 166 36q40 32 40 126v468h-196v74h196v462q0 98 -38 124q-40 28 -168 38v56h622q264 0 434 -92q334 -184 334 -624q0 -484 -388 -660q-146 -66 -388 -66h-614zM456 242q0 -150 184 -150h74q246 0 380 90q236 162 236 574q0 640 -618 640h-72 q-92 0 -134 -22q-50 -26 -50 -130v-462h360v-74h-360v-466z" />
<glyph unicode="&#xd1;" horiz-adv-x="1672" d="M82 1406v56h370l852 -1200h6v986q0 100 -46 126q-34 22 -162 32v56h508v-56q-126 -8 -158 -34q-40 -28 -40 -124v-1248h-88l-922 1298h-6v-1058q0 -100 38 -124q44 -32 160 -38v-58h-504v58q116 6 162 36q42 30 42 126v1000q0 96 -42 130q-30 26 -170 36zM508 1660 q58 140 184 140q76 0 178 -66q70 -44 128 -44q76 0 114 82l58 -36q-58 -140 -182 -140q-82 0 -172 58q-88 52 -138 52q-74 0 -116 -82z" />
<glyph unicode="&#xd2;" horiz-adv-x="1640" d="M124 746q0 292 160 504q202 266 538 266q312 0 508 -224q194 -220 194 -544q0 -256 -118 -454q-194 -326 -580 -326q-344 0 -544 270q-158 212 -158 508zM294 752q0 -262 100 -442q144 -264 432 -264q258 0 406 226q122 188 122 478q0 296 -132 484q-148 208 -394 208 t-390 -194q-144 -188 -144 -496zM510 1774l100 100l280 -260l-46 -52z" />
<glyph unicode="&#xd3;" horiz-adv-x="1640" d="M124 746q0 292 160 504q202 266 538 266q312 0 508 -224q194 -220 194 -544q0 -256 -118 -454q-194 -326 -580 -326q-344 0 -544 270q-158 212 -158 508zM294 752q0 -262 100 -442q144 -264 432 -264q258 0 406 226q122 188 122 478q0 296 -132 484q-148 208 -394 208 t-390 -194q-144 -188 -144 -496zM744 1614l280 260l98 -100l-330 -212z" />
<glyph unicode="&#xd4;" horiz-adv-x="1640" d="M124 746q0 292 160 504q202 266 538 266q312 0 508 -224q194 -220 194 -544q0 -256 -118 -454q-194 -326 -580 -326q-344 0 -544 270q-158 212 -158 508zM294 752q0 -262 100 -442q144 -264 432 -264q258 0 406 226q122 188 122 478q0 296 -132 484q-148 208 -394 208 t-390 -194q-144 -188 -144 -496zM548 1636l228 214h98l228 -214l-48 -42l-228 152l-232 -152z" />
<glyph unicode="&#xd5;" horiz-adv-x="1640" d="M124 746q0 292 160 504q202 266 538 266q312 0 508 -224q194 -220 194 -544q0 -256 -118 -454q-194 -326 -580 -326q-344 0 -544 270q-158 212 -158 508zM294 752q0 -262 100 -442q144 -264 432 -264q258 0 406 226q122 188 122 478q0 296 -132 484q-148 208 -394 208 t-390 -194q-144 -188 -144 -496zM518 1660q56 140 186 140q74 0 178 -66q68 -44 126 -44q76 0 114 82l58 -36q-58 -140 -184 -140q-80 0 -182 66q-70 44 -124 44q-76 0 -118 -82z" />
<glyph unicode="&#xd6;" horiz-adv-x="1640" d="M124 746q0 292 160 504q202 266 538 266q312 0 508 -224q194 -220 194 -544q0 -256 -118 -454q-194 -326 -580 -326q-344 0 -544 270q-158 212 -158 508zM294 752q0 -262 100 -442q144 -264 432 -264q258 0 406 226q122 188 122 478q0 296 -132 484q-148 208 -394 208 t-390 -194q-144 -188 -144 -496zM512 1704q0 100 98 100t98 -96q0 -100 -98 -100t-98 96zM946 1704q0 98 96 98q98 0 98 -98q0 -96 -96 -96q-98 0 -98 96z" />
<glyph unicode="&#xd7;" horiz-adv-x="1598" d="M188 236l544 542l-544 544l68 68l542 -544l544 544l68 -68l-544 -544l544 -542l-68 -68l-544 544l-542 -544z" />
<glyph unicode="&#xd8;" horiz-adv-x="1640" d="M124 746q0 296 164 510q202 260 536 260q258 0 444 -162l122 148l64 -56l-124 -154q194 -226 194 -544q0 -256 -118 -454q-194 -326 -580 -326q-260 0 -452 170l-140 -172l-66 56l144 176q-188 226 -188 548zM294 748q0 -268 102 -450l804 972q-146 172 -374 172 q-256 0 -404 -214q-128 -186 -128 -480zM446 226q144 -180 380 -180q248 0 392 206q136 192 136 500q0 264 -102 446z" />
<glyph unicode="&#xd9;" horiz-adv-x="1622" d="M42 1406v56h574v-56q-128 -8 -174 -38q-40 -28 -40 -126v-632q0 -534 450 -534q438 0 438 534v632q0 100 -42 128q-36 26 -162 36v56h510v-56q-126 -10 -162 -36q-42 -28 -42 -128v-640q0 -630 -556 -630q-578 0 -578 618v652q0 96 -50 128q-38 26 -166 36zM530 1774 l102 100l280 -260l-48 -52z" />
<glyph unicode="&#xda;" horiz-adv-x="1622" d="M42 1406v56h574v-56q-128 -8 -174 -38q-40 -28 -40 -126v-632q0 -534 450 -534q438 0 438 534v632q0 100 -42 128q-36 26 -162 36v56h510v-56q-126 -10 -162 -36q-42 -28 -42 -128v-640q0 -630 -556 -630q-578 0 -578 618v652q0 96 -50 128q-38 26 -166 36zM764 1614 l282 260l98 -100l-332 -212z" />
<glyph unicode="&#xdb;" horiz-adv-x="1622" d="M42 1406v56h574v-56q-128 -8 -174 -38q-40 -28 -40 -126v-632q0 -534 450 -534q438 0 438 534v632q0 100 -42 128q-36 26 -162 36v56h510v-56q-126 -10 -162 -36q-42 -28 -42 -128v-640q0 -630 -556 -630q-578 0 -578 618v652q0 96 -50 128q-38 26 -166 36zM568 1636 l232 214h94l230 -214l-48 -42l-228 152l-234 -152z" />
<glyph unicode="&#xdc;" horiz-adv-x="1622" d="M42 1406v56h574v-56q-128 -8 -174 -38q-40 -28 -40 -126v-632q0 -534 450 -534q438 0 438 534v632q0 100 -42 128q-36 26 -162 36v56h510v-56q-126 -10 -162 -36q-42 -28 -42 -128v-640q0 -630 -556 -630q-578 0 -578 618v652q0 96 -50 128q-38 26 -166 36zM536 1704 q0 98 96 98t96 -98q0 -96 -96 -96t-96 96zM968 1704q0 98 94 98q98 0 98 -98q0 -96 -96 -96t-96 96z" />
<glyph unicode="&#xdd;" horiz-adv-x="1404" d="M-6 1406v56h562v-56q-178 -4 -178 -66q0 -38 38 -106l310 -548l342 582q22 42 22 66q0 68 -190 72v56h514v-56q-156 -4 -262 -182l-376 -620v-364q0 -96 56 -130q44 -26 162 -32v-58h-574v58q144 6 180 38q38 38 38 124v346l-394 658q-94 158 -250 162zM670 1614l282 260 l98 -100l-332 -212z" />
<glyph unicode="&#xde;" horiz-adv-x="1402" d="M106 20v58q126 6 166 36q40 32 40 126v1002q0 96 -40 128q-34 24 -166 36v56h556v-56q-130 -12 -166 -36q-42 -30 -42 -144v-42h180q696 0 696 -436q0 -242 -238 -362q-166 -82 -454 -82h-184v-64q0 -98 42 -126q46 -30 164 -36v-58h-554zM454 374h120q598 0 598 368 q0 370 -598 370h-120v-738z" />
<glyph unicode="&#xdf;" horiz-adv-x="1134" d="M42 20v58q76 0 122 24q42 22 42 106v900q0 168 82 268q98 124 292 124q140 0 236 -72q114 -94 114 -264q0 -164 -124 -264q-76 -60 -184 -84v-8q410 -60 410 -426q0 -188 -96 -294q-82 -92 -216 -92q-212 0 -212 126q0 78 78 78t78 -72q0 -20 -18 -54q28 -22 72 -22 q68 0 114 68q60 86 60 242q0 364 -382 412v54q284 74 284 356q0 80 -34 136q-64 118 -196 118q-224 0 -224 -338v-884q0 -94 38 -116q42 -22 108 -22v-58h-444z" />
<glyph unicode="&#xe0;" horiz-adv-x="1112" d="M116 262q0 330 548 362l106 6v38q0 308 -244 308q-164 0 -216 -108q54 -8 54 -74q0 -86 -88 -86q-98 0 -98 96q0 78 86 150q106 88 270 88q366 0 366 -358v-414q0 -204 68 -204q44 0 70 62l42 -30q-46 -106 -144 -106q-148 0 -154 174q-124 -180 -346 -180 q-110 0 -188 46q-132 76 -132 230zM258 280q0 -78 44 -136q58 -76 160 -76q134 0 234 92q52 46 74 116v284l-88 -4q-424 -22 -424 -276zM300 1408l100 98l250 -254l-46 -46z" />
<glyph unicode="&#xe1;" horiz-adv-x="1112" d="M116 262q0 330 548 362l106 6v38q0 308 -244 308q-164 0 -216 -108q54 -8 54 -74q0 -86 -88 -86q-98 0 -98 96q0 78 86 150q106 88 270 88q366 0 366 -358v-414q0 -204 68 -204q44 0 70 62l42 -30q-46 -106 -144 -106q-148 0 -154 174q-124 -180 -346 -180 q-110 0 -188 46q-132 76 -132 230zM258 280q0 -78 44 -136q58 -76 160 -76q134 0 234 92q52 46 74 116v284l-88 -4q-424 -22 -424 -276zM448 1252l248 254l100 -98l-306 -202z" />
<glyph unicode="&#xe2;" horiz-adv-x="1112" d="M116 262q0 330 548 362l106 6v38q0 308 -244 308q-164 0 -216 -108q54 -8 54 -74q0 -86 -88 -86q-98 0 -98 96q0 78 86 150q106 88 270 88q366 0 366 -358v-414q0 -204 68 -204q44 0 70 62l42 -30q-46 -106 -144 -106q-148 0 -154 174q-124 -180 -346 -180 q-110 0 -188 46q-132 76 -132 230zM258 280q0 -78 44 -136q58 -76 160 -76q134 0 234 92q52 46 74 116v284l-88 -4q-424 -22 -424 -276zM298 1242l202 198h88l206 -198l-40 -44l-210 138l-210 -138z" />
<glyph unicode="&#xe3;" horiz-adv-x="1112" d="M116 262q0 330 548 362l106 6v38q0 308 -244 308q-164 0 -216 -108q54 -8 54 -74q0 -86 -88 -86q-98 0 -98 96q0 78 86 150q106 88 270 88q366 0 366 -358v-414q0 -204 68 -204q44 0 70 62l42 -30q-46 -106 -144 -106q-148 0 -154 174q-124 -180 -346 -180 q-110 0 -188 46q-132 76 -132 230zM258 280q0 -78 44 -136q58 -76 160 -76q134 0 234 92q52 46 74 116v284l-88 -4q-424 -22 -424 -276zM270 1306q32 126 158 126q68 0 158 -58q66 -40 102 -40q60 0 100 76l50 -40q-46 -120 -156 -120q-70 0 -158 54q-68 42 -108 42 q-64 0 -96 -72z" />
<glyph unicode="&#xe4;" horiz-adv-x="1112" d="M116 262q0 330 548 362l106 6v38q0 308 -244 308q-164 0 -216 -108q54 -8 54 -74q0 -86 -88 -86q-98 0 -98 96q0 78 86 150q106 88 270 88q366 0 366 -358v-414q0 -204 68 -204q44 0 70 62l42 -30q-46 -106 -144 -106q-148 0 -154 174q-124 -180 -346 -180 q-110 0 -188 46q-132 76 -132 230zM258 280q0 -78 44 -136q58 -76 160 -76q134 0 234 92q52 46 74 116v284l-88 -4q-424 -22 -424 -276zM274 1344q0 92 90 92q92 0 92 -90q0 -92 -90 -92q-92 0 -92 90zM636 1344q0 92 90 92q92 0 92 -90q0 -92 -90 -92q-92 0 -92 90z" />
<glyph unicode="&#xe5;" horiz-adv-x="1112" d="M116 262q0 328 552 362l104 6v38q0 310 -242 310q-162 0 -220 -110q54 -16 54 -74q0 -86 -90 -86q-96 0 -96 98q0 80 92 150q108 82 262 82q368 0 368 -354v-414q0 -204 68 -204q38 0 68 56l44 -24q-42 -106 -140 -106q-150 0 -154 176q-130 -182 -350 -182 q-110 0 -188 46q-132 76 -132 230zM254 278q0 -78 44 -136q58 -76 162 -76q138 0 238 94q52 46 74 116v284l-86 -4q-432 -22 -432 -278zM376 1342q0 74 58 120q48 36 102 36q68 0 116 -50q46 -42 46 -106q0 -44 -22 -76q-44 -82 -138 -82q-36 0 -68 14q-94 42 -94 144z M432 1342q0 -44 34 -74q32 -30 72 -30t72 32q30 30 30 72q0 102 -102 102q-106 0 -106 -102z" />
<glyph unicode="&#xe6;" horiz-adv-x="1748" d="M116 262q0 330 548 360l106 6v40q0 308 -244 308q-164 0 -216 -110q54 -6 54 -74q0 -86 -88 -86q-98 0 -98 98q0 78 86 150q108 88 268 88q254 0 334 -180q124 176 334 176q262 0 378 -216q58 -114 58 -246v-36h-736v-34q0 -160 68 -274q94 -154 272 -154q222 0 336 212 l58 -38q-122 -264 -412 -264q-270 0 -386 230h-6q-120 -232 -394 -232q-110 0 -188 46q-132 76 -132 230zM258 280q0 -78 44 -136q58 -76 160 -76q134 0 234 92q52 46 74 116v282l-88 -4q-424 -20 -424 -274zM902 618h598q-4 148 -74 240q-88 114 -230 114q-134 0 -218 -126 q-68 -94 -76 -228z" />
<glyph unicode="&#xe7;" horiz-adv-x="1096" d="M118 512q0 168 70 292q132 238 414 238q188 0 302 -98q76 -64 76 -142q0 -102 -94 -102q-92 0 -92 86q0 58 50 80q-74 108 -234 108q-148 0 -240 -116q-98 -130 -98 -340q0 -166 76 -278q100 -156 272 -156q214 0 334 210l56 -46q-110 -228 -376 -256l-48 -106 q230 -4 230 -164q0 -196 -396 -200l-22 74q286 4 286 128q0 96 -210 100v34l60 136q-208 32 -322 190q-94 130 -94 328z" />
<glyph unicode="&#xe8;" horiz-adv-x="1144" d="M118 514q0 196 92 332q132 196 382 196q268 0 382 -220q56 -106 56 -242v-36h-770v-34q0 -152 74 -266q108 -166 302 -166q218 0 338 214l54 -42q-126 -262 -412 -262q-228 0 -370 154q-128 138 -128 372zM270 624h624q-4 182 -106 276q-84 74 -200 74q-144 0 -240 -126 q-70 -96 -78 -224zM346 1408l102 98l250 -254l-46 -46z" />
<glyph unicode="&#xe9;" horiz-adv-x="1144" d="M118 514q0 196 92 332q132 196 382 196q268 0 382 -220q56 -106 56 -242v-36h-770v-34q0 -152 74 -266q108 -166 302 -166q218 0 338 214l54 -42q-126 -262 -412 -262q-228 0 -370 154q-128 138 -128 372zM270 624h624q-4 182 -106 276q-84 74 -200 74q-144 0 -240 -126 q-70 -96 -78 -224zM492 1252l250 254l100 -98l-304 -202z" />
<glyph unicode="&#xea;" horiz-adv-x="1144" d="M118 514q0 196 92 332q132 196 382 196q268 0 382 -220q56 -106 56 -242v-36h-770v-34q0 -152 74 -266q108 -166 302 -166q218 0 338 214l54 -42q-126 -262 -412 -262q-228 0 -370 154q-128 138 -128 372zM270 624h624q-4 182 -106 276q-84 74 -200 74q-144 0 -240 -126 q-70 -96 -78 -224zM344 1242l204 198h88l204 -198l-38 -44l-212 138l-208 -138z" />
<glyph unicode="&#xeb;" horiz-adv-x="1144" d="M118 514q0 196 92 332q132 196 382 196q268 0 382 -220q56 -106 56 -242v-36h-770v-34q0 -152 74 -266q108 -166 302 -166q218 0 338 214l54 -42q-126 -262 -412 -262q-228 0 -370 154q-128 138 -128 372zM270 624h624q-4 182 -106 276q-84 74 -200 74q-144 0 -240 -126 q-70 -96 -78 -224zM320 1344q0 92 90 92q92 0 92 -90q0 -92 -90 -92q-92 0 -92 90zM682 1344q0 92 88 92q94 0 94 -90q0 -92 -92 -92q-90 0 -90 90z" />
<glyph unicode="&#xec;" horiz-adv-x="616" d="M62 1408l100 98l250 -254l-46 -46zM78 946v62q182 4 314 30v-830q0 -92 42 -110q40 -18 134 -18v-60h-488v60q94 0 132 18q44 22 44 110v614q0 94 -44 112q-28 12 -134 12z" />
<glyph unicode="&#xed;" horiz-adv-x="616" d="M78 946v62q182 4 314 30v-830q0 -92 42 -110q40 -18 134 -18v-60h-488v60q94 0 132 18q44 22 44 110v614q0 94 -44 112q-28 12 -134 12zM210 1252l250 252l98 -96l-306 -202z" />
<glyph unicode="&#xee;" horiz-adv-x="616" d="M60 1242l202 198h88l206 -198l-40 -44l-210 138l-210 -138zM78 946v62q182 4 314 30v-830q0 -92 42 -110q40 -18 134 -18v-60h-488v60q94 0 132 18q44 22 44 110v614q0 94 -44 112q-28 12 -134 12z" />
<glyph unicode="&#xef;" horiz-adv-x="616" d="M36 1344q0 92 90 92q92 0 92 -90q0 -92 -90 -92q-92 0 -92 90zM78 946v62q182 4 314 30v-830q0 -92 42 -110q40 -18 134 -18v-60h-488v60q94 0 132 18q44 22 44 110v614q0 94 -44 112q-28 12 -134 12zM398 1344q0 92 88 92q94 0 94 -90q0 -92 -90 -92q-92 0 -92 90z" />
<glyph unicode="&#xf0;" horiz-adv-x="1180" d="M116 514q0 182 84 312q138 210 398 210q124 0 232 -66l8 4q-90 184 -266 316l-268 -168l-36 60l250 152q-132 76 -264 104l26 64q184 -38 318 -112l174 106l42 -60l-148 -90q406 -302 406 -798q0 -256 -122 -404q-132 -160 -356 -160q-258 0 -394 212q-84 134 -84 318z M256 516q0 -192 76 -310q94 -150 262 -150q154 0 246 126q92 124 92 334t-96 334q-92 122 -238 122q-152 0 -248 -124q-94 -124 -94 -332z" />
<glyph unicode="&#xf1;" horiz-adv-x="1286" d="M80 20v58q88 0 136 22q44 22 44 110v612q0 94 -44 112q-28 12 -136 12v62q182 4 308 30v-212q120 208 344 208q338 0 338 -368v-456q0 -84 48 -112q36 -20 130 -20v-58h-490v58q90 0 138 22q40 22 40 110v428q0 308 -224 308q-234 0 -316 -244v-492q0 -86 36 -108 q44 -24 140 -24v-58h-492zM384 1306q40 126 160 126q66 0 158 -58q66 -40 102 -40q64 0 98 76l50 -40q-46 -120 -154 -120q-72 0 -160 54q-66 42 -106 42q-66 0 -98 -72z" />
<glyph unicode="&#xf2;" horiz-adv-x="1206" d="M122 520q0 270 176 416q130 106 302 106q212 0 350 -144q136 -144 136 -378q0 -206 -102 -346q-138 -186 -382 -186q-260 0 -394 212q-86 132 -86 320zM274 520q0 -188 74 -308q88 -146 254 -146q158 0 246 124q88 120 88 330t-94 330q-92 120 -238 120q-168 0 -258 -150 q-72 -122 -72 -300zM360 1408l100 98l250 -254l-46 -46z" />
<glyph unicode="&#xf3;" horiz-adv-x="1206" d="M122 520q0 270 176 416q130 106 302 106q212 0 350 -144q136 -144 136 -378q0 -206 -102 -346q-138 -186 -382 -186q-260 0 -394 212q-86 132 -86 320zM274 520q0 -188 74 -308q88 -146 254 -146q158 0 246 124q88 120 88 330t-94 330q-92 120 -238 120q-168 0 -258 -150 q-72 -122 -72 -300zM506 1252l250 254l98 -98l-304 -202z" />
<glyph unicode="&#xf4;" horiz-adv-x="1206" d="M122 520q0 270 176 416q130 106 302 106q212 0 350 -144q136 -144 136 -378q0 -206 -102 -346q-138 -186 -382 -186q-260 0 -394 212q-86 132 -86 320zM274 520q0 -188 74 -308q88 -146 254 -146q158 0 246 124q88 120 88 330t-94 330q-92 120 -238 120q-168 0 -258 -150 q-72 -122 -72 -300zM358 1242l204 198h86l204 -198l-38 -44l-212 138l-208 -138z" />
<glyph unicode="&#xf5;" horiz-adv-x="1206" d="M122 520q0 270 176 416q130 106 302 106q212 0 350 -144q136 -144 136 -378q0 -206 -102 -346q-138 -186 -382 -186q-260 0 -394 212q-86 132 -86 320zM274 520q0 -188 74 -308q88 -146 254 -146q158 0 246 124q88 120 88 330t-94 330q-92 120 -238 120q-168 0 -258 -150 q-72 -122 -72 -300zM330 1306q36 126 162 126q66 0 156 -58q66 -40 104 -40q64 0 96 76l54 -40q-50 -120 -154 -120q-72 0 -164 54q-66 42 -104 42q-66 0 -96 -72z" />
<glyph unicode="&#xf6;" horiz-adv-x="1206" d="M122 520q0 270 176 416q130 106 302 106q212 0 350 -144q136 -144 136 -378q0 -206 -102 -346q-138 -186 -382 -186q-260 0 -394 212q-86 132 -86 320zM274 520q0 -188 74 -308q88 -146 254 -146q158 0 246 124q88 120 88 330t-94 330q-92 120 -238 120q-168 0 -258 -150 q-72 -122 -72 -300zM332 1346q0 92 90 92q94 0 94 -92t-92 -92t-92 92zM694 1344q0 92 90 92q92 0 92 -90q0 -92 -90 -92q-92 0 -92 90z" />
<glyph unicode="&#xf7;" horiz-adv-x="1598" d="M96 732v94h1406v-94h-1406zM680 372q0 54 40 88q34 30 80 30q26 0 50 -12q68 -30 68 -106q0 -50 -34 -84q-36 -36 -84 -36q-32 0 -58 14q-62 34 -62 106zM680 1186q0 56 40 88q34 32 80 32q26 0 50 -12q68 -32 68 -108q0 -48 -34 -84q-36 -34 -84 -34q-32 0 -58 14 q-62 34 -62 104z" />
<glyph unicode="&#xf8;" horiz-adv-x="1206" d="M122 518q0 198 98 334q138 190 382 190q154 0 284 -86l82 98l56 -48l-82 -104q144 -156 144 -386q0 -216 -116 -360q-138 -168 -366 -168q-176 0 -312 112l-104 -130l-60 52l112 136q-118 150 -118 360zM272 516q0 -162 44 -262l510 626q-90 92 -224 92q-146 0 -238 -120 q-92 -124 -92 -336zM360 182q92 -116 244 -116q154 0 244 120q92 120 92 332q0 182 -66 298z" />
<glyph unicode="&#xf9;" horiz-adv-x="1248" d="M44 946v62q172 4 310 30v-658q0 -312 230 -312q126 0 222 94q70 70 98 176v486q0 86 -48 108q-26 14 -132 14v62q154 4 310 30v-830q0 -88 42 -108q40 -20 138 -20v-60h-300l-10 166q-114 -206 -342 -206q-342 0 -342 366v476q0 96 -42 112q-28 12 -134 12zM360 1408 l100 98l250 -254l-44 -46z" />
<glyph unicode="&#xfa;" horiz-adv-x="1248" d="M44 946v62q172 4 310 30v-658q0 -312 230 -312q126 0 222 94q70 70 98 176v486q0 86 -48 108q-26 14 -132 14v62q154 4 310 30v-830q0 -88 42 -108q40 -20 138 -20v-60h-300l-10 166q-114 -206 -342 -206q-342 0 -342 366v476q0 96 -42 112q-28 12 -134 12zM506 1252 l250 254l100 -98l-304 -202z" />
<glyph unicode="&#xfb;" horiz-adv-x="1248" d="M44 946v62q172 4 310 30v-658q0 -312 230 -312q126 0 222 94q70 70 98 176v486q0 86 -48 108q-26 14 -132 14v62q154 4 310 30v-830q0 -88 42 -108q40 -20 138 -20v-60h-300l-10 166q-114 -206 -342 -206q-342 0 -342 366v476q0 96 -42 112q-28 12 -134 12zM356 1242 l206 198h88l202 -198l-36 -44l-212 138l-210 -138z" />
<glyph unicode="&#xfc;" horiz-adv-x="1248" d="M44 946v62q172 4 310 30v-658q0 -312 230 -312q126 0 222 94q70 70 98 176v486q0 86 -48 108q-26 14 -132 14v62q154 4 310 30v-830q0 -88 42 -108q40 -20 138 -20v-60h-300l-10 166q-114 -206 -342 -206q-342 0 -342 366v476q0 96 -42 112q-28 12 -134 12zM334 1344 q0 92 90 92q92 0 92 -90q0 -92 -90 -92q-92 0 -92 90zM694 1346q0 92 90 92q94 0 94 -92t-92 -92t-92 92z" />
<glyph unicode="&#xfd;" horiz-adv-x="1094" d="M-2 952v56h436v-56q-132 -4 -132 -64q0 -20 16 -64l270 -640l252 634q12 30 12 60q0 70 -138 74v56h390v-56q-124 -4 -170 -116l-424 -1058q-70 -178 -212 -178q-148 0 -148 124q0 92 96 92q90 0 90 -84q0 -16 -2 -22l-4 -20q68 -2 114 124l82 218l-350 782 q-40 88 -72 110q-32 24 -106 28zM484 1252l250 254l100 -98l-306 -202z" />
<glyph unicode="&#xfe;" horiz-adv-x="1228" d="M26 -296q94 0 138 22q44 20 44 110v1438q0 98 -48 116q-26 12 -128 12v60q178 0 312 34v-652q120 194 334 194q216 0 338 -172q98 -138 98 -344q0 -172 -74 -300q-126 -220 -362 -220q-220 0 -334 176v-342q0 -86 50 -112q34 -20 138 -20v-56h-506v56zM344 324 q22 -70 62 -116q102 -124 262 -124q152 0 238 148q66 116 66 286q0 158 -60 270q-90 166 -258 166q-208 0 -310 -254v-376z" />
<glyph unicode="&#xff;" horiz-adv-x="1094" d="M-2 952v56h436v-56q-132 -4 -132 -64q0 -20 16 -64l270 -640l252 634q12 30 12 60q0 70 -138 74v56h390v-56q-124 -4 -170 -116l-424 -1058q-70 -178 -212 -178q-148 0 -148 124q0 92 96 92q90 0 90 -84q0 -16 -2 -22l-4 -20q68 -2 114 124l82 218l-350 782 q-40 88 -72 110q-32 24 -106 28zM302 1344q0 92 88 92q94 0 94 -90q0 -92 -92 -92q-90 0 -90 90zM662 1344q0 92 90 92q92 0 92 -90q0 -92 -90 -92q-92 0 -92 90z" />
<glyph unicode="&#x152;" horiz-adv-x="2138" d="M122 742q0 426 320 616q176 104 400 104h1128l26 -404h-64q-14 208 -98 274q-90 68 -310 68h-132q-114 0 -152 -36q-32 -28 -32 -118v-442h202q112 0 154 44q50 54 58 168h60v-502h-60q-8 134 -62 178q-48 40 -150 40h-202v-492q0 -92 36 -122q38 -32 148 -32h132 q252 0 336 82q82 82 102 294h60l-28 -442h-1152q-248 0 -442 136q-278 198 -278 586zM294 724q0 -636 598 -636h18q72 0 116 22q44 26 44 134v1004q0 110 -68 136q-44 20 -116 20h-20q-246 0 -396 -146q-176 -170 -176 -534z" />
<glyph unicode="&#x153;" horiz-adv-x="1868" d="M114 518q0 158 66 284q126 240 394 240q228 0 374 -202q124 198 372 198q272 0 384 -226q56 -108 56 -240v-32h-764v-34q0 -168 86 -284q104 -144 278 -144q224 0 338 212l60 -40q-126 -262 -418 -262q-250 0 -382 206q-146 -206 -384 -206q-212 0 -346 164 q-114 146 -114 366zM266 518q0 -194 76 -314q88 -136 244 -136q136 0 220 116q82 118 82 330q0 194 -72 316q-84 140 -230 140q-160 0 -248 -148q-72 -122 -72 -304zM1002 618h620q-2 168 -94 264q-86 90 -216 90q-128 0 -218 -110q-80 -98 -92 -244z" />
<glyph unicode="&#x178;" horiz-adv-x="1024" />
<glyph unicode="&#x2c6;" horiz-adv-x="1024" d="M266 1242l206 198h86l204 -198l-38 -44l-212 138l-208 -138z" />
<glyph unicode="&#x2dc;" horiz-adv-x="1024" d="M246 1306q38 126 162 126q66 0 156 -58q66 -40 104 -40q64 0 96 76l54 -40q-50 -120 -156 -120q-70 0 -162 54q-66 42 -104 42q-66 0 -96 -72z" />
<glyph unicode="&#x2000;" horiz-adv-x="937" vert-adv-y="0" />
<glyph unicode="&#x2001;" horiz-adv-x="1874" vert-adv-y="0" />
<glyph unicode="&#x2002;" horiz-adv-x="937" vert-adv-y="0" />
<glyph unicode="&#x2003;" horiz-adv-x="1874" vert-adv-y="0" />
<glyph unicode="&#x2004;" horiz-adv-x="624" vert-adv-y="0" />
<glyph unicode="&#x2005;" horiz-adv-x="468" vert-adv-y="0" />
<glyph unicode="&#x2006;" horiz-adv-x="312" vert-adv-y="0" />
<glyph unicode="&#x2007;" horiz-adv-x="312" vert-adv-y="0" />
<glyph unicode="&#x2008;" horiz-adv-x="234" vert-adv-y="0" />
<glyph unicode="&#x2009;" horiz-adv-x="374" vert-adv-y="0" />
<glyph unicode="&#x200a;" horiz-adv-x="104" vert-adv-y="0" />
<glyph unicode="&#x2010;" horiz-adv-x="604" d="M82 544v112h442v-112h-442z" />
<glyph unicode="&#x2011;" horiz-adv-x="604" d="M82 544v112h442v-112h-442z" />
<glyph unicode="&#x2012;" horiz-adv-x="604" d="M82 544v112h442v-112h-442z" />
<glyph unicode="&#x2013;" horiz-adv-x="1126" d="M102 554v92h922v-92h-922z" />
<glyph unicode="&#x2014;" horiz-adv-x="1844" d="M0 732v94h1844v-94h-1844z" />
<glyph unicode="&#x2018;" horiz-adv-x="860" d="M408 1322q0 96 68 206q70 120 194 196l32 -26q-124 -118 -152 -268q128 -4 128 -126q0 -36 -18 -68q-40 -68 -112 -68q-56 0 -96 42q-44 44 -44 112z" />
<glyph unicode="&#x2019;" horiz-adv-x="860" d="M160 1160q126 122 152 268h-2q-24 0 -42 8q-84 28 -84 114q0 38 18 72q40 68 110 68q58 0 98 -42q44 -44 44 -110q0 -98 -68 -208q-70 -120 -194 -196z" />
<glyph unicode="&#x201a;" horiz-adv-x="2048" />
<glyph unicode="&#x201c;" horiz-adv-x="1208" d="M346 1322q0 96 68 206q70 120 194 196l32 -26q-124 -118 -152 -268q128 -4 128 -126q0 -36 -18 -68q-40 -68 -112 -68q-56 0 -96 42q-44 44 -44 112zM756 1322q0 96 68 206q70 120 194 196l30 -26q-122 -118 -150 -268q128 -4 128 -126q0 -36 -18 -68q-40 -68 -112 -68 q-56 0 -96 42q-44 44 -44 112z" />
<glyph unicode="&#x201d;" horiz-adv-x="1208" d="M160 1160q126 122 152 268h-2q-24 0 -42 8q-84 28 -84 114q0 38 18 72q40 68 110 68q58 0 98 -42q44 -44 44 -110q0 -98 -68 -208q-70 -120 -194 -196zM570 1160q124 122 152 268h-2q-24 0 -44 8q-84 28 -84 114q0 38 18 72q40 68 112 68q58 0 98 -42q42 -44 42 -110 q0 -98 -68 -208q-70 -120 -194 -196z" />
<glyph unicode="&#x201e;" horiz-adv-x="2048" />
<glyph unicode="&#x2022;" horiz-adv-x="728" d="M202 706q0 80 62 130q42 34 100 34q64 0 112 -44q54 -50 54 -120q0 -44 -22 -78q-46 -86 -144 -86q-68 0 -118 50q-44 46 -44 114z" />
<glyph unicode="&#x2026;" horiz-adv-x="2048" d="M216 778q0 58 44 96q34 32 80 32q38 0 70 -22q60 -36 60 -106q0 -48 -36 -86q-38 -40 -92 -40q-30 0 -58 16q-68 34 -68 110zM898 778q0 58 44 96q34 32 80 32q38 0 70 -22q60 -36 60 -106q0 -48 -36 -86q-38 -40 -92 -40q-30 0 -58 16q-68 34 -68 110zM1580 778 q0 58 44 96q34 32 80 32q38 0 70 -22q60 -36 60 -106q0 -48 -36 -86q-38 -40 -92 -40q-30 0 -58 16q-68 34 -68 110z" />
<glyph unicode="&#x202f;" horiz-adv-x="374" vert-adv-y="0" />
<glyph unicode="&#x2039;" horiz-adv-x="2048" />
<glyph unicode="&#x203a;" horiz-adv-x="2048" />
<glyph unicode="&#x205f;" horiz-adv-x="468" vert-adv-y="0" />
<glyph unicode="&#x2122;" horiz-adv-x="2048" />
<glyph unicode="&#x25fc;" horiz-adv-x="1010" vert-adv-y="2020" d="M0 0v1010h1010v-1010h-1010z" />
<glyph unicode="&#xfb01;" horiz-adv-x="1024" />
<glyph unicode="&#xfb02;" horiz-adv-x="1024" />
</font>
</defs>
</svg>
